<?xml version="1.0" standalone="no"?>
<!DOCTYPE svg PUBLIC "-//W3C//DTD SVG 20010904//EN"
 "http://www.w3.org/TR/2001/REC-SVG-20010904/DTD/svg10.dtd">
<svg version="1.0" xmlns="http://www.w3.org/2000/svg"
 width="195" height="37" viewBox="0 0 195 37"
 preserveAspectRatio="xMidYMid meet">

<g transform="translate(0.000000,37.000000) scale(0.100000,-0.100000)"
fill="#000000" stroke="none">
<path d="M1204 249 c-10 -17 13 -36 27 -22 12 12 4 33 -11 33 -5 0 -12 -5 -16
-11z"/>
<path d="M680 160 c0 -73 2 -80 20 -80 17 0 20 7 21 43 l0 42 19 -42 c14 -30
25 -43 40 -43 18 0 20 6 20 80 0 73 -2 80 -20 80 -17 0 -20 -7 -21 -42 l0 -43
-19 43 c-14 29 -25 42 -40 42 -18 0 -20 -6 -20 -80z"/>
<path d="M1058 209 c-20 -21 -23 -39 -8 -39 6 0 10 -15 10 -33 0 -18 5 -38 12
-45 17 -17 58 -15 58 3 0 8 -7 15 -15 15 -10 0 -15 10 -15 30 0 20 5 30 15 30
8 0 15 7 15 15 0 8 -7 15 -15 15 -8 0 -15 7 -15 15 0 20 -21 17 -42 -6z"/>
<path d="M902 184 c-51 -35 -8 -115 54 -100 30 8 27 32 -4 28 -11 -2 -23 2
-27 8 -4 6 7 10 29 10 42 0 47 19 16 50 -24 24 -38 25 -68 4z m43 -24 c3 -5
-1 -10 -9 -10 -9 0 -16 5 -16 10 0 6 4 10 9 10 6 0 13 -4 16 -10z"/>
<path d="M1200 140 c0 -53 2 -60 20 -60 18 0 20 7 20 60 0 53 -2 60 -20 60
-18 0 -20 -7 -20 -60z"/>
<path d="M1300 140 c0 -53 2 -60 19 -60 16 0 20 8 23 42 2 31 8 44 21 46 14 3
17 -4 17 -42 0 -39 3 -46 20 -46 17 0 20 7 20 49 0 61 -18 80 -61 64 -16 -6
-29 -7 -29 -2 0 5 -7 9 -15 9 -12 0 -15 -13 -15 -60z"/>
<path d="M1508 190 c-13 -8 -16 -23 -14 -73 1 -34 5 -68 9 -74 12 -19 62 -16
88 6 20 16 21 21 10 35 -8 9 -28 16 -47 16 -19 0 -34 5 -34 10 0 6 8 10 18 10
27 0 50 21 58 53 6 26 5 27 -32 27 -22 0 -47 -5 -56 -10z m42 -35 c0 -8 -4
-15 -10 -15 -5 0 -10 7 -10 15 0 8 5 15 10 15 6 0 10 -7 10 -15z m13 -92 c-7
-2 -21 -2 -30 0 -10 3 -4 5 12 5 17 0 24 -2 18 -5z"/>
<path d="M125 95 c-4 -36 -4 -69 0 -73 17 -18 422 -19 438 -1 3 2 0 34 -5 72
-13 86 -32 90 -23 5 l7 -63 -75 -2 c-40 -1 -86 -7 -100 -12 -18 -7 -36 -7 -53
-1 -15 6 -60 11 -101 13 l-75 2 7 63 c4 39 3 62 -3 62 -6 0 -14 -29 -17 -65z"/>
</g>
</svg>
